<svg width="39" height="40" viewBox="0 0 39 40" fill="none" xmlns="http://www.w3.org/2000/svg">
<path fill-rule="evenodd" clip-rule="evenodd" d="M14.1667 6.25C14.7807 6.25 15.3202 6.65697 15.4888 7.24726L16.9797 12.4653C17.6323 14.7492 19.4175 16.5345 21.7015 17.187L26.9195 18.6779C27.5098 18.8466 27.9167 19.3861 27.9167 20C27.9167 20.6139 27.5098 21.1534 26.9195 21.3221L21.7015 22.813C19.4175 23.4655 17.6323 25.2508 16.9797 27.5347L15.4888 32.7527C15.3202 33.343 14.7807 33.75 14.1667 33.75C13.5528 33.75 13.0133 33.343 12.8447 32.7527L11.3538 27.5347C10.7012 25.2508 8.91595 23.4655 6.63202 22.813L1.41401 21.3221C0.823717 21.1534 0.416748 20.6139 0.416748 20C0.416748 19.3861 0.823717 18.8466 1.41401 18.6779L6.63202 17.187C8.91595 16.5345 10.7012 14.7492 11.3538 12.4653L12.8447 7.24726C13.0133 6.65697 13.5528 6.25 14.1667 6.25Z" fill="white"/>
<path fill-rule="evenodd" clip-rule="evenodd" d="M30.6667 0.75C31.2977 0.75 31.8477 1.17941 32.0007 1.79151L32.4753 3.68986C32.9063 5.41411 34.2526 6.76041 35.9769 7.19147L37.8752 7.66605C38.4873 7.81908 38.9167 8.36906 38.9167 9C38.9167 9.63094 38.4873 10.1809 37.8752 10.3339L35.9769 10.8085C34.2526 11.2396 32.9063 12.5859 32.4753 14.3101L32.0007 16.2085C31.8477 16.8206 31.2977 17.25 30.6667 17.25C30.0358 17.25 29.4858 16.8206 29.3328 16.2085L28.8582 14.3101C28.4272 12.5859 27.0809 11.2396 25.3566 10.8085L23.4583 10.3339C22.8462 10.1809 22.4167 9.63094 22.4167 9C22.4167 8.36906 22.8462 7.81908 23.4583 7.66605L25.3566 7.19147C27.0809 6.76041 28.4272 5.41411 28.8582 3.68986L29.3328 1.79151C29.4858 1.17941 30.0358 0.75 30.6667 0.75Z" fill="white"/>
<path fill-rule="evenodd" clip-rule="evenodd" d="M27.9167 25.5C28.5086 25.5 29.034 25.8787 29.2212 26.4402L29.944 28.6085C30.2177 29.4297 30.8621 30.0741 31.6832 30.3478L33.8516 31.0706C34.413 31.2577 34.7917 31.7832 34.7917 32.375C34.7917 32.9668 34.413 33.4923 33.8516 33.6794L31.6832 34.4022C30.8621 34.6759 30.2177 35.3203 29.944 36.1415L29.2212 38.3098C29.034 38.8713 28.5086 39.25 27.9167 39.25C27.3249 39.25 26.7995 38.8713 26.6123 38.3098L25.8895 36.1415C25.6158 35.3203 24.9714 34.6759 24.1503 34.4022L21.9819 33.6794C21.4205 33.4923 21.0417 32.9668 21.0417 32.375C21.0417 31.7832 21.4205 31.2577 21.9819 31.0706L24.1503 30.3478C24.9714 30.0741 25.6158 29.4297 25.8895 28.6085L26.6123 26.4402C26.7995 25.8787 27.3249 25.5 27.9167 25.5Z" fill="white"/>
</svg>
