<svg width="32" height="42" viewBox="0 0 32 42" fill="none" xmlns="http://www.w3.org/2000/svg">
<path d="M16 0.375C7.64669 0.375 0.875 7.14669 0.875 15.5C0.875 21.0931 3.91157 25.9753 8.41946 28.5908C9.67613 29.32 10.4631 30.4388 10.4987 31.5647C10.5183 32.1857 10.952 32.7164 11.5567 32.8594C12.2009 33.0116 12.8574 33.1314 13.5242 33.2171C14.1175 33.2934 14.6253 32.8181 14.6253 32.22V23.6747C14.04 23.61 13.4664 23.5043 12.9076 23.3605C12.1722 23.1712 11.7294 22.4216 11.9187 21.6862C12.108 20.9507 12.8576 20.508 13.5931 20.6973C14.3609 20.8949 15.1672 21.0003 16.0003 21.0003C16.8334 21.0003 17.6398 20.8949 18.4076 20.6973C19.143 20.508 19.8927 20.9507 20.0819 21.6862C20.2712 22.4216 19.8285 23.1712 19.0931 23.3605C18.5343 23.5043 17.9607 23.61 17.3753 23.6747V32.2199C17.3753 32.818 17.8832 33.2933 18.4765 33.217C19.1431 33.1314 19.7993 33.0116 20.4433 32.8594C21.048 32.7164 21.4817 32.1857 21.5013 31.5647C21.5369 30.4388 22.3239 29.32 23.5805 28.5908C28.0884 25.9753 31.125 21.0931 31.125 15.5C31.125 7.14669 24.3533 0.375 16 0.375Z" fill="white"/>
<path fill-rule="evenodd" clip-rule="evenodd" d="M10.5241 35.4827C10.6656 34.7366 11.3852 34.2465 12.1313 34.3881C13.3834 34.6256 14.6765 34.75 16 34.75C17.3235 34.75 18.6166 34.6256 19.8687 34.3881C20.6148 34.2465 21.3344 34.7366 21.4759 35.4827C21.6174 36.2288 21.1273 36.9483 20.3813 37.0899C18.9611 37.3593 17.4963 37.5 16 37.5C14.5037 37.5 13.039 37.3593 11.6187 37.0899C10.8727 36.9483 10.3826 36.2288 10.5241 35.4827Z" fill="white"/>
<path fill-rule="evenodd" clip-rule="evenodd" d="M11.8825 39.9639C11.9615 39.2087 12.6378 38.6605 13.3931 38.7395C14.2494 38.829 15.1191 38.875 16 38.875C16.8809 38.875 17.7506 38.829 18.6069 38.7395C19.3622 38.6605 20.0385 39.2087 20.1175 39.9639C20.1965 40.7192 19.6483 41.3955 18.8931 41.4745C17.9419 41.574 16.9767 41.625 16 41.625C15.0233 41.625 14.0581 41.574 13.1069 41.4745C12.3517 41.3955 11.8035 40.7192 11.8825 39.9639Z" fill="white"/>
</svg>
