<svg width="34" height="40" viewBox="0 0 34 40" fill="none" xmlns="http://www.w3.org/2000/svg">
<path fill-rule="evenodd" clip-rule="evenodd" d="M17.3334 0.75C18.0928 0.75 18.7084 1.36561 18.7084 2.125V6.25C18.7084 7.00939 18.0928 7.625 17.3334 7.625C16.574 7.625 15.9584 7.00939 15.9584 6.25V2.125C15.9584 1.36561 16.574 0.75 17.3334 0.75ZM5.66611 5.58274C6.20308 5.04577 7.07369 5.04577 7.61066 5.58274L10.5275 8.49955C11.0644 9.03652 11.0644 9.90713 10.5275 10.4441C9.9905 10.9811 9.1199 10.9811 8.58293 10.4441L5.66611 7.52728C5.12914 6.99031 5.12914 6.11971 5.66611 5.58274ZM29.0006 5.58274C29.5376 6.11971 29.5376 6.99031 29.0006 7.52728L26.0838 10.4441C25.5468 10.9811 24.6763 10.9811 24.1393 10.4441C23.6023 9.90713 23.6023 9.03652 24.1393 8.49955L27.0561 5.58274C27.5931 5.04577 28.4637 5.04577 29.0006 5.58274ZM16.5054 13.8249C17.0771 13.6718 17.6827 13.9016 18.0088 14.3955L27.5919 28.9098C27.8983 29.3739 27.895 29.9768 27.5835 30.4375C27.272 30.8982 26.7136 31.1259 26.1688 31.0145L22.3238 30.2277L24.2391 37.3758C24.4356 38.1093 24.0003 38.8633 23.2668 39.0598C22.5333 39.2563 21.7793 38.821 21.5828 38.0875L19.6675 30.9395L16.7315 33.5431C16.3154 33.9121 15.718 33.9941 15.2179 33.7509C14.7177 33.5077 14.4134 32.9871 14.4467 32.432L15.4888 15.0707C15.5242 14.4799 15.9337 13.9781 16.5054 13.8249ZM0.833374 17.25C0.833374 16.4906 1.44898 15.875 2.20837 15.875H6.33337C7.09277 15.875 7.70837 16.4906 7.70837 17.25C7.70837 18.0094 7.09277 18.625 6.33337 18.625H2.20837C1.44898 18.625 0.833374 18.0094 0.833374 17.25ZM26.9584 17.25C26.9584 16.4906 27.574 15.875 28.3334 15.875H32.4584C33.2178 15.875 33.8334 16.4906 33.8334 17.25C33.8334 18.0094 33.2178 18.625 32.4584 18.625H28.3334C27.574 18.625 26.9584 18.0094 26.9584 17.25ZM10.5275 24.0559C11.0644 24.5929 11.0644 25.4635 10.5275 26.0004L7.61066 28.9173C7.07369 29.4542 6.20308 29.4542 5.66611 28.9173C5.12914 28.3803 5.12914 27.5097 5.66611 26.9727L8.58293 24.0559C9.1199 23.5189 9.9905 23.5189 10.5275 24.0559Z" fill="white"/>
</svg>
