<svg width="22" height="38" viewBox="0 0 22 38" fill="none" xmlns="http://www.w3.org/2000/svg">
<path d="M0.672023 19C0.672023 14.0979 0.660154 9.18398 0.672023 4.2819C0.672023 2.26409 1.6928 0.792285 3.48508 0.210682C3.91238 0.0682492 4.37529 0.00890208 4.82633 0.00890208C8.96876 -0.00296736 13.0993 -0.00296736 17.2299 0.00890208C19.6394 0.0207715 21.3961 1.76558 21.3961 4.1632C21.4079 14.0504 21.4079 23.9377 21.3961 33.8368C21.3961 36.2344 19.6394 37.9911 17.2418 37.9911C13.1468 38.003 9.05185 38.003 4.95689 37.9911C2.39309 37.9911 0.683893 36.3056 0.683893 33.7181C0.660154 28.8042 0.672023 23.9021 0.672023 19ZM11.0459 3.45104C10.2388 3.45104 9.43167 3.45104 8.62455 3.45104C7.9836 3.46291 7.62751 3.75964 7.61564 4.2819C7.60378 4.81602 7.93612 5.18398 8.55333 5.18398C10.2151 5.20772 11.8649 5.20772 13.5266 5.18398C14.1201 5.17211 14.5237 4.76855 14.4999 4.2819C14.4762 3.78338 14.0845 3.45104 13.4791 3.45104C12.6602 3.45104 11.853 3.45104 11.0459 3.45104ZM11.0459 31.095C10.0726 31.095 9.3011 31.8546 9.31297 32.816C9.32484 33.7656 10.1201 34.5371 11.0697 34.5252C11.9955 34.5134 12.7432 33.7656 12.7551 32.8279C12.7551 31.8427 12.0192 31.1068 11.0459 31.095Z" fill="white"/>
</svg>
