<svg width="34" height="34" viewBox="0 0 34 34" fill="none" xmlns="http://www.w3.org/2000/svg">
<path d="M6.33337 0.5C3.29581 0.5 0.833374 2.96243 0.833374 6V10.125C0.833374 13.1626 3.29581 15.625 6.33337 15.625H10.4584C13.4959 15.625 15.9584 13.1626 15.9584 10.125V6C15.9584 2.96243 13.4959 0.5 10.4584 0.5H6.33337Z" fill="white"/>
<path d="M24.2084 0.5C21.1708 0.5 18.7084 2.96243 18.7084 6V10.125C18.7084 13.1626 21.1708 15.625 24.2084 15.625H28.3334C31.3709 15.625 33.8334 13.1626 33.8334 10.125V6C33.8334 2.96243 31.3709 0.5 28.3334 0.5H24.2084Z" fill="white"/>
<path d="M6.33337 18.375C3.29581 18.375 0.833374 20.8374 0.833374 23.875V28C0.833374 31.0376 3.29581 33.5 6.33337 33.5H10.4584C13.4959 33.5 15.9584 31.0376 15.9584 28V23.875C15.9584 20.8374 13.4959 18.375 10.4584 18.375H6.33337Z" fill="white"/>
<path d="M27.6459 19.75C27.6459 18.9906 27.0303 18.375 26.2709 18.375C25.5115 18.375 24.8959 18.9906 24.8959 19.75V24.5625H20.0834C19.324 24.5625 18.7084 25.1781 18.7084 25.9375C18.7084 26.6969 19.324 27.3125 20.0834 27.3125H24.8959V32.125C24.8959 32.8844 25.5115 33.5 26.2709 33.5C27.0303 33.5 27.6459 32.8844 27.6459 32.125V27.3125H32.4584C33.2178 27.3125 33.8334 26.6969 33.8334 25.9375C33.8334 25.1781 33.2178 24.5625 32.4584 24.5625H27.6459V19.75Z" fill="white"/>
</svg>
