<svg width="17" height="14" viewBox="0 0 17 14" fill="none" xmlns="http://www.w3.org/2000/svg">
<path fill-rule="evenodd" clip-rule="evenodd" d="M0.88916 6.99999C0.88916 6.32344 1.42194 5.77499 2.07916 5.77499H12.6113L9.18769 2.57468C8.71395 2.10576 8.69918 1.33028 9.1547 0.842602C9.61023 0.354924 10.3635 0.339719 10.8373 0.80864L16.3906 6.11697C16.624 6.34793 16.7558 6.66677 16.7558 6.99999C16.7558 7.33321 16.624 7.65206 16.3906 7.88301L10.8373 13.1913C10.3635 13.6603 9.61023 13.6451 9.1547 13.1574C8.69918 12.6697 8.71395 11.8942 9.18769 11.4253L12.6113 8.22499H2.07916C1.42194 8.22499 0.88916 7.67654 0.88916 6.99999Z" fill="white"/>
</svg>
