<svg width="167" height="167" viewBox="0 0 167 167" fill="none" xmlns="http://www.w3.org/2000/svg">
<g filter="url(#filter0_i_287_220)">
<path d="M41.8334 83.5001L83.5001 41.8334L125.167 83.5001L83.5001 125.167L41.8334 83.5001Z" fill="white" fill-opacity="0.02"/>
<path d="M41.8334 83.5001L83.5001 41.8334L125.167 83.5001L83.5001 125.167L41.8334 83.5001Z" fill="url(#paint0_linear_287_220)" fill-opacity="0.2"/>
<path d="M166.833 33.5001V83.5001L83.5001 0.166748H133.5L166.833 33.5001Z" fill="white" fill-opacity="0.02"/>
<path d="M166.833 33.5001V83.5001L83.5001 0.166748H133.5L166.833 33.5001Z" fill="url(#paint1_linear_287_220)" fill-opacity="0.2"/>
<path d="M166.833 133.5V83.5001L83.5001 166.833H133.5L166.833 133.5Z" fill="white" fill-opacity="0.02"/>
<path d="M166.833 133.5V83.5001L83.5001 166.833H133.5L166.833 133.5Z" fill="url(#paint2_linear_287_220)" fill-opacity="0.2"/>
<path d="M0.166748 133.5V83.5001L83.5001 166.833H33.5001L0.166748 133.5Z" fill="white" fill-opacity="0.02"/>
<path d="M0.166748 133.5V83.5001L83.5001 166.833H33.5001L0.166748 133.5Z" fill="url(#paint3_linear_287_220)" fill-opacity="0.2"/>
<path d="M0.166748 33.5001V83.5001L83.5001 0.166748H33.5001L0.166748 33.5001Z" fill="white" fill-opacity="0.02"/>
<path d="M0.166748 33.5001V83.5001L83.5001 0.166748H33.5001L0.166748 33.5001Z" fill="url(#paint4_linear_287_220)" fill-opacity="0.2"/>
</g>
<defs>
<filter id="filter0_i_287_220" x="0.166748" y="0.166748" width="166.667" height="166.667" filterUnits="userSpaceOnUse" color-interpolation-filters="sRGB">
<feFlood flood-opacity="0" result="BackgroundImageFix"/>
<feBlend mode="normal" in="SourceGraphic" in2="BackgroundImageFix" result="shape"/>
<feColorMatrix in="SourceAlpha" type="matrix" values="0 0 0 0 0 0 0 0 0 0 0 0 0 0 0 0 0 0 127 0" result="hardAlpha"/>
<feOffset/>
<feGaussianBlur stdDeviation="6"/>
<feComposite in2="hardAlpha" operator="arithmetic" k2="-1" k3="1"/>
<feColorMatrix type="matrix" values="0 0 0 0 1 0 0 0 0 1 0 0 0 0 1 0 0 0 0.2 0"/>
<feBlend mode="normal" in2="shape" result="effect1_innerShadow_287_220"/>
</filter>
<linearGradient id="paint0_linear_287_220" x1="83.5001" y1="-79.978" x2="83.5001" y2="166.833" gradientUnits="userSpaceOnUse">
<stop stop-color="white"/>
<stop offset="0.773658" stop-color="white" stop-opacity="0"/>
</linearGradient>
<linearGradient id="paint1_linear_287_220" x1="83.5001" y1="-79.978" x2="83.5001" y2="166.833" gradientUnits="userSpaceOnUse">
<stop stop-color="white"/>
<stop offset="0.773658" stop-color="white" stop-opacity="0"/>
</linearGradient>
<linearGradient id="paint2_linear_287_220" x1="83.5001" y1="-79.978" x2="83.5001" y2="166.833" gradientUnits="userSpaceOnUse">
<stop stop-color="white"/>
<stop offset="0.773658" stop-color="white" stop-opacity="0"/>
</linearGradient>
<linearGradient id="paint3_linear_287_220" x1="83.5001" y1="-79.978" x2="83.5001" y2="166.833" gradientUnits="userSpaceOnUse">
<stop stop-color="white"/>
<stop offset="0.773658" stop-color="white" stop-opacity="0"/>
</linearGradient>
<linearGradient id="paint4_linear_287_220" x1="83.5001" y1="-79.978" x2="83.5001" y2="166.833" gradientUnits="userSpaceOnUse">
<stop stop-color="white"/>
<stop offset="0.773658" stop-color="white" stop-opacity="0"/>
</linearGradient>
</defs>
</svg>
