<svg width="167" height="175" viewBox="0 0 167 175" fill="none" xmlns="http://www.w3.org/2000/svg">
<g filter="url(#filter0_i_287_259)">
<path d="M83.5001 29.1667L100.167 58.3333H133.5L150.167 29.1667H116.833L100.167 0L83.5001 29.1667Z" fill="white" fill-opacity="0.02"/>
<path d="M83.5001 29.1667L100.167 58.3333H133.5L150.167 29.1667H116.833L100.167 0L83.5001 29.1667Z" fill="url(#paint0_linear_287_259)" fill-opacity="0.2"/>
<path d="M133.5 116.667L116.833 87.5L133.5 58.3333H166.833L150.167 87.5L166.833 116.667H133.5Z" fill="white" fill-opacity="0.02"/>
<path d="M133.5 116.667L116.833 87.5L133.5 58.3333H166.833L150.167 87.5L166.833 116.667H133.5Z" fill="url(#paint1_linear_287_259)" fill-opacity="0.2"/>
<path d="M83.5001 145.833L100.167 116.667H133.5L150.167 145.833H116.833L100.167 175L83.5001 145.833Z" fill="white" fill-opacity="0.02"/>
<path d="M83.5001 145.833L100.167 116.667H133.5L150.167 145.833H116.833L100.167 175L83.5001 145.833Z" fill="url(#paint2_linear_287_259)" fill-opacity="0.2"/>
<path d="M83.5001 145.833L66.8334 116.667H33.5001L16.8334 145.833H50.1668L66.8334 175L83.5001 145.833Z" fill="white" fill-opacity="0.02"/>
<path d="M83.5001 145.833L66.8334 116.667H33.5001L16.8334 145.833H50.1668L66.8334 175L83.5001 145.833Z" fill="url(#paint3_linear_287_259)" fill-opacity="0.2"/>
<path d="M33.5001 116.667L50.1668 87.5L33.5001 58.3333H0.166748L16.8334 87.5L0.166748 116.667H33.5001Z" fill="white" fill-opacity="0.02"/>
<path d="M33.5001 116.667L50.1668 87.5L33.5001 58.3333H0.166748L16.8334 87.5L0.166748 116.667H33.5001Z" fill="url(#paint4_linear_287_259)" fill-opacity="0.2"/>
<path d="M83.5001 29.1667L66.8334 58.3333H33.5001L16.8334 29.1667H50.1668L66.8334 0L83.5001 29.1667Z" fill="white" fill-opacity="0.02"/>
<path d="M83.5001 29.1667L66.8334 58.3333H33.5001L16.8334 29.1667H50.1668L66.8334 0L83.5001 29.1667Z" fill="url(#paint5_linear_287_259)" fill-opacity="0.2"/>
</g>
<defs>
<filter id="filter0_i_287_259" x="0.166748" y="0" width="166.667" height="175" filterUnits="userSpaceOnUse" color-interpolation-filters="sRGB">
<feFlood flood-opacity="0" result="BackgroundImageFix"/>
<feBlend mode="normal" in="SourceGraphic" in2="BackgroundImageFix" result="shape"/>
<feColorMatrix in="SourceAlpha" type="matrix" values="0 0 0 0 0 0 0 0 0 0 0 0 0 0 0 0 0 0 127 0" result="hardAlpha"/>
<feOffset/>
<feGaussianBlur stdDeviation="6"/>
<feComposite in2="hardAlpha" operator="arithmetic" k2="-1" k3="1"/>
<feColorMatrix type="matrix" values="0 0 0 0 1 0 0 0 0 1 0 0 0 0 1 0 0 0 0.2 0"/>
<feBlend mode="normal" in2="shape" result="effect1_innerShadow_287_259"/>
</filter>
<linearGradient id="paint0_linear_287_259" x1="83.5001" y1="-84.152" x2="83.5001" y2="175" gradientUnits="userSpaceOnUse">
<stop stop-color="white"/>
<stop offset="0.773658" stop-color="white" stop-opacity="0"/>
</linearGradient>
<linearGradient id="paint1_linear_287_259" x1="83.5001" y1="-84.152" x2="83.5001" y2="175" gradientUnits="userSpaceOnUse">
<stop stop-color="white"/>
<stop offset="0.773658" stop-color="white" stop-opacity="0"/>
</linearGradient>
<linearGradient id="paint2_linear_287_259" x1="83.5001" y1="-84.152" x2="83.5001" y2="175" gradientUnits="userSpaceOnUse">
<stop stop-color="white"/>
<stop offset="0.773658" stop-color="white" stop-opacity="0"/>
</linearGradient>
<linearGradient id="paint3_linear_287_259" x1="83.5001" y1="-84.152" x2="83.5001" y2="175" gradientUnits="userSpaceOnUse">
<stop stop-color="white"/>
<stop offset="0.773658" stop-color="white" stop-opacity="0"/>
</linearGradient>
<linearGradient id="paint4_linear_287_259" x1="83.5001" y1="-84.152" x2="83.5001" y2="175" gradientUnits="userSpaceOnUse">
<stop stop-color="white"/>
<stop offset="0.773658" stop-color="white" stop-opacity="0"/>
</linearGradient>
<linearGradient id="paint5_linear_287_259" x1="83.5001" y1="-84.152" x2="83.5001" y2="175" gradientUnits="userSpaceOnUse">
<stop stop-color="white"/>
<stop offset="0.773658" stop-color="white" stop-opacity="0"/>
</linearGradient>
</defs>
</svg>
