<svg width="185" height="193" viewBox="0 0 185 193" fill="none" xmlns="http://www.w3.org/2000/svg">
<g filter="url(#filter0_i_287_278)">
<path d="M92.5 167.333L138.333 192.333L184.167 167.333V109L138.333 138.167L92.5 109V167.333Z" fill="white" fill-opacity="0.02"/>
<path d="M92.5 167.333L138.333 192.333L184.167 167.333V109L138.333 138.167L92.5 109V167.333Z" fill="url(#paint0_linear_287_278)" fill-opacity="0.2"/>
<path d="M0.833374 109L46.6667 83.9998L92.5 109L46.6667 138.167V192.333L0.833374 167.333V109Z" fill="white" fill-opacity="0.02"/>
<path d="M0.833374 109L46.6667 83.9998L92.5 109L46.6667 138.167V192.333L0.833374 167.333V109Z" fill="url(#paint1_linear_287_278)" fill-opacity="0.2"/>
<path d="M138.333 83.9998L92.5 109V54.8332L46.6667 25.6665L92.5 0.666504L138.333 25.6665V83.9998Z" fill="white" fill-opacity="0.02"/>
<path d="M138.333 83.9998L92.5 109V54.8332L46.6667 25.6665L92.5 0.666504L138.333 25.6665V83.9998Z" fill="url(#paint2_linear_287_278)" fill-opacity="0.2"/>
</g>
<defs>
<filter id="filter0_i_287_278" x="0.833374" y="0.666504" width="183.333" height="191.667" filterUnits="userSpaceOnUse" color-interpolation-filters="sRGB">
<feFlood flood-opacity="0" result="BackgroundImageFix"/>
<feBlend mode="normal" in="SourceGraphic" in2="BackgroundImageFix" result="shape"/>
<feColorMatrix in="SourceAlpha" type="matrix" values="0 0 0 0 0 0 0 0 0 0 0 0 0 0 0 0 0 0 127 0" result="hardAlpha"/>
<feOffset/>
<feGaussianBlur stdDeviation="6"/>
<feComposite in2="hardAlpha" operator="arithmetic" k2="-1" k3="1"/>
<feColorMatrix type="matrix" values="0 0 0 0 1 0 0 0 0 1 0 0 0 0 1 0 0 0 0.2 0"/>
<feBlend mode="normal" in2="shape" result="effect1_innerShadow_287_278"/>
</filter>
<linearGradient id="paint0_linear_287_278" x1="92.5" y1="-91.5" x2="92.5" y2="192.333" gradientUnits="userSpaceOnUse">
<stop stop-color="white"/>
<stop offset="0.773658" stop-color="white" stop-opacity="0"/>
</linearGradient>
<linearGradient id="paint1_linear_287_278" x1="92.5" y1="-91.5" x2="92.5" y2="192.333" gradientUnits="userSpaceOnUse">
<stop stop-color="white"/>
<stop offset="0.773658" stop-color="white" stop-opacity="0"/>
</linearGradient>
<linearGradient id="paint2_linear_287_278" x1="92.5" y1="-91.5" x2="92.5" y2="192.333" gradientUnits="userSpaceOnUse">
<stop stop-color="white"/>
<stop offset="0.773658" stop-color="white" stop-opacity="0"/>
</linearGradient>
</defs>
</svg>
